Pacifico-Final.ufo
<glyph name="percent" format="1">
  <advance width="772"/>
  <unicode hex="0025"/>
  <outline>
    <contour>
      <point x="155" y="229" type="curve" smooth="yes"/>
      <point x="172" y="229"/>
      <point x="188" y="232"/>
      <point x="204" y="239" type="curve" smooth="yes"/>
      <point x="274" y="268"/>
      <point x="325" y="350"/>
      <point x="325" y="448" type="curve" smooth="yes"/>
      <point x="325" y="531"/>
      <point x="286" y="591"/>
      <point x="203" y="591" type="curve" smooth="yes"/>
      <point x="92" y="591"/>
      <point x="32" y="494"/>
      <point x="32" y="383" type="curve" smooth="yes"/>
      <point x="32" y="300"/>
      <point x="73" y="229"/>
    </contour>
    <contour>
      <point x="162" y="295" type="curve" smooth="yes"/>
      <point x="126" y="295"/>
      <point x="120" y="353"/>
      <point x="120" y="390" type="curve" smooth="yes"/>
      <point x="120" y="448"/>
      <point x="139" y="525"/>
      <point x="194" y="525" type="curve" smooth="yes"/>
      <point x="231" y="525"/>
      <point x="241" y="487"/>
      <point x="241" y="449" type="curve" smooth="yes"/>
      <point x="241" y="394"/>
      <point x="216" y="295"/>
    </contour>
    <contour>
      <point x="286" y="35" type="curve" smooth="yes"/>
      <point x="565" y="532" type="line" smooth="yes"/>
      <point x="573" y="546"/>
      <point x="576" y="559"/>
      <point x="576" y="569" type="curve" smooth="yes"/>
      <point x="576" y="587"/>
      <point x="567" y="597"/>
      <point x="554" y="597" type="curve" smooth="yes"/>
      <point x="543" y="597"/>
      <point x="530" y="589"/>
      <point x="519" y="571" type="curve" smooth="yes"/>
      <point x="224" y="68" type="line" smooth="yes"/>
      <point x="216" y="54"/>
      <point x="213" y="42"/>
      <point x="213" y="32" type="curve" smooth="yes"/>
      <point x="213" y="13"/>
      <point x="224" y="0"/>
      <point x="240" y="0" type="curve" smooth="yes"/>
      <point x="254" y="0"/>
      <point x="272" y="11"/>
    </contour>
    <contour>
      <point x="590" y="60" type="curve" smooth="yes"/>
      <point x="557" y="60"/>
      <point x="550" y="107"/>
      <point x="550" y="142" type="curve" smooth="yes"/>
      <point x="550" y="202"/>
      <point x="565" y="290"/>
      <point x="623" y="290" type="curve" smooth="yes"/>
      <point x="658" y="290"/>
      <point x="663" y="234"/>
      <point x="663" y="197" type="curve" smooth="yes"/>
      <point x="663" y="146"/>
      <point x="640" y="60"/>
    </contour>
    <contour>
      <point x="584" y="-5" type="curve" smooth="yes"/>
      <point x="678" y="-5"/>
      <point x="747" y="89"/>
      <point x="747" y="203" type="curve" smooth="yes"/>
      <point x="747" y="286"/>
      <point x="714" y="355"/>
      <point x="632" y="355" type="curve" smooth="yes"/>
      <point x="518" y="355"/>
      <point x="462" y="251"/>
      <point x="462" y="137" type="curve" smooth="yes"/>
      <point x="462" y="57"/>
      <point x="503" y="-5"/>
    </contour>
  </outline>
</glyph>
<glyph name="slash" format="1">
  <advance width="426"/>
  <unicode hex="002F"/>
  <outline>
    <contour>
      <point x="166" y="22" type="curve" smooth="yes"/>
      <point x="230" y="172"/>
      <point x="326" y="394"/>
      <point x="395" y="558" type="curve" smooth="yes"/>
      <point x="397" y="563"/>
      <point x="398" y="568"/>
      <point x="398" y="573" type="curve" smooth="yes"/>
      <point x="398" y="593"/>
      <point x="382" y="608"/>
      <point x="364" y="608" type="curve" smooth="yes"/>
      <point x="350" y="608"/>
      <point x="334" y="599"/>
      <point x="324" y="576" type="curve" smooth="yes"/>
      <point x="257" y="420"/>
      <point x="169" y="219"/>
      <point x="101" y="62" type="curve" smooth="yes"/>
      <point x="96" y="50"/>
      <point x="94" y="40"/>
      <point x="94" y="31" type="curve" smooth="yes"/>
      <point x="94" y="8"/>
      <point x="110" y="-4"/>
      <point x="127" y="-4" type="curve" smooth="yes"/>
      <point x="142" y="-4"/>
      <point x="159" y="5"/>
    </contour>
  </outline>
</glyph>
<glyph name="two" format="1">
  <advance width="417"/>
  <unicode hex="0032"/>
  <outline>
    <contour>
      <point x="140" y="371" type="curve" smooth="yes"/>
      <point x="140" y="410"/>
      <point x="188" y="434"/>
      <point x="227" y="434" type="curve" smooth="yes"/>
      <point x="282" y="434"/>
      <point x="308" y="387"/>
      <point x="308" y="312" type="curve" smooth="yes"/>
      <point x="308" y="251"/>
      <point x="285" y="182"/>
      <point x="237" y="135" type="curve"/>
      <point x="205" y="157"/>
      <point x="168" y="178"/>
      <point x="123" y="178" type="curve" smooth="yes"/>
      <point x="73" y="178"/>
      <point x="41" y="144"/>
      <point x="41" y="94" type="curve" smooth="yes"/>
      <point x="41" y="39"/>
      <point x="88" y="0"/>
      <point x="143" y="0" type="curve" smooth="yes"/>
      <point x="184" y="0"/>
      <point x="216" y="22"/>
      <point x="243" y="45" type="curve"/>
      <point x="267" y="26"/>
      <point x="296" y="0"/>
      <point x="334" y="0" type="curve" smooth="yes"/>
      <point x="379" y="0"/>
      <point x="394" y="41"/>
      <point x="394" y="76" type="curve" smooth="yes"/>
      <point x="394" y="88"/>
      <point x="391" y="97"/>
      <point x="382" y="97" type="curve" smooth="yes"/>
      <point x="370" y="97"/>
      <point x="364" y="78"/>
      <point x="348" y="78" type="curve" smooth="yes"/>
      <point x="324" y="78"/>
      <point x="306" y="84"/>
      <point x="290" y="94" type="curve"/>
      <point x="343" y="153"/>
      <point x="388" y="237"/>
      <point x="388" y="321" type="curve" smooth="yes"/>
      <point x="388" y="456"/>
      <point x="300" y="499"/>
      <point x="228" y="499" type="curve" smooth="yes"/>
      <point x="137" y="499"/>
      <point x="66" y="451"/>
      <point x="66" y="359" type="curve" smooth="yes"/>
      <point x="66" y="315"/>
      <point x="82" y="286"/>
      <point x="121" y="286" type="curve" smooth="yes"/>
      <point x="144" y="286"/>
      <point x="151" y="293"/>
      <point x="151" y="307" type="curve" smooth="yes"/>
      <point x="151" y="321"/>
      <point x="140" y="347"/>
    </contour>
    <contour>
      <point x="133" y="62" type="curve" smooth="yes"/>
      <point x="111" y="62"/>
      <point x="100" y="78"/>
      <point x="100" y="92" type="curve" smooth="yes"/>
      <point x="100" y="104"/>
      <point x="107" y="114"/>
      <point x="124" y="114" type="curve" smooth="yes"/>
      <point x="146" y="114"/>
      <point x="179" y="104"/>
      <point x="195" y="93" type="curve"/>
      <point x="176" y="73"/>
      <point x="150" y="62"/>
    </contour>
  </outline>
</glyph>
<glyph name="nine" format="1">
  <advance width="417"/>
  <unicode hex="0039"/>
  <outline>
    <contour>
      <point x="390" y="204" type="curve" smooth="yes"/>
      <point x="390" y="319"/>
      <point x="322" y="379"/>
      <point x="225" y="379" type="curve" smooth="yes"/>
      <point x="127" y="379"/>
      <point x="63" y="306"/>
      <point x="63" y="208" type="curve" smooth="yes"/>
      <point x="63" y="114"/>
      <point x="135" y="56"/>
      <point x="208" y="56" type="curve" smooth="yes"/>
      <point x="241" y="56"/>
      <point x="274" y="68"/>
      <point x="299" y="95" type="curve"/>
      <point x="262" y="12"/>
      <point x="189" y="-40"/>
      <point x="106" y="-78" type="curve" smooth="yes"/>
      <point x="91" y="-85"/>
      <point x="83" y="-99"/>
      <point x="83" y="-115" type="curve" smooth="yes"/>
      <point x="83" y="-133"/>
      <point x="94" y="-143"/>
      <point x="116" y="-143" type="curve" smooth="yes"/>
      <point x="127" y="-143"/>
      <point x="136" y="-139"/>
      <point x="146" y="-134" type="curve" smooth="yes"/>
      <point x="267" y="-76"/>
      <point x="390" y="27"/>
    </contour>
    <contour>
      <point x="223" y="309" type="curve" smooth="yes"/>
      <point x="282" y="309"/>
      <point x="313" y="264"/>
      <point x="313" y="218" type="curve" smooth="yes"/>
      <point x="313" y="160"/>
      <point x="279" y="124"/>
      <point x="214" y="124" type="curve" smooth="yes"/>
      <point x="166" y="124"/>
      <point x="141" y="169"/>
      <point x="141" y="214" type="curve" smooth="yes"/>
      <point x="141" y="261"/>
      <point x="168" y="309"/>
    </contour>
  </outline>
</glyph>
<glyph name="I" format="1">
  <advance width="342"/>
  <unicode hex="0049"/>
  <outline>
    <contour>
      <point x="342" y="671" type="move" name="top"/>
    </contour>
    <contour>
      <point x="171" y="0" type="move" name="ogonek"/>
    </contour>
    <contour>
      <point x="-0" y="4" type="curve" smooth="yes"/>
      <point x="-0" y="-15"/>
      <point x="10" y="-30"/>
      <point x="29" y="-30" type="curve" smooth="yes"/>
      <point x="66" y="-30"/>
      <point x="204" y="-11"/>
      <point x="296" y="-7" type="curve" smooth="yes"/>
      <point x="325" y="-6"/>
      <point x="337" y="14"/>
      <point x="337" y="31" type="curve" smooth="yes"/>
      <point x="337" y="41"/>
      <point x="333" y="50"/>
      <point x="325" y="53" type="curve" smooth="yes"/>
      <point x="312" y="58"/>
      <point x="277" y="59"/>
      <point x="249" y="59" type="curve" smooth="yes"/>
      <point x="231" y="59"/>
      <point x="216" y="59"/>
      <point x="211" y="58" type="curve"/>
      <point x="222" y="176"/>
      <point x="339" y="577"/>
      <point x="354" y="579" type="curve" smooth="yes"/>
      <point x="392" y="583"/>
      <point x="480" y="582"/>
      <point x="488" y="603" type="curve" smooth="yes"/>
      <point x="492" y="614"/>
      <point x="495" y="626"/>
      <point x="495" y="636" type="curve" smooth="yes"/>
      <point x="495" y="651"/>
      <point x="489" y="664"/>
      <point x="473" y="664" type="curve" smooth="yes"/>
      <point x="446" y="663"/>
      <point x="195" y="657"/>
      <point x="169" y="655" type="curve" smooth="yes"/>
      <point x="152" y="653"/>
      <point x="144" y="628"/>
      <point x="144" y="608" type="curve" smooth="yes"/>
      <point x="144" y="575"/>
      <point x="163" y="575"/>
      <point x="202" y="575" type="curve" smooth="yes"/>
      <point x="204" y="575" type="line" smooth="yes"/>
      <point x="231" y="575"/>
      <point x="261" y="577"/>
      <point x="278" y="577" type="curve"/>
      <point x="219" y="445"/>
      <point x="159" y="227"/>
      <point x="134" y="55" type="curve"/>
      <point x="103" y="54"/>
      <point x="9" y="45"/>
      <point x="2" y="19" type="curve" smooth="yes"/>
      <point x="0" y="14"/>
      <point x="-0" y="9"/>
    </contour>
  </outline>
</glyph>
<glyph name="Q" format="1">
  <advance width="701"/>
  <unicode hex="0051"/>
  <outline>
    <component base="O"/>
    <contour>
      <point x="1042" y="-208" type="curve" smooth="yes"/>
      <point x="1042" y="-189"/>
      <point x="1023" y="-179"/>
      <point x="1007" y="-179" type="curve" smooth="yes"/>
      <point x="997" y="-179"/>
      <point x="987" y="-185"/>
      <point x="985" y="-193" type="curve" smooth="yes"/>
      <point x="961" y="-221"/>
      <point x="940" y="-251"/>
      <point x="891" y="-251" type="curve" smooth="yes"/>
      <point x="814" y="-251"/>
      <point x="679" y="-181"/>
      <point x="438" y="4" type="curve" smooth="yes"/>
      <point x="436" y="5"/>
      <point x="434" y="6"/>
      <point x="432" y="6" type="curve" smooth="yes"/>
      <point x="416" y="6"/>
      <point x="389" y="-21"/>
      <point x="389" y="-36" type="curve" smooth="yes"/>
      <point x="389" y="-39"/>
      <point x="390" y="-42"/>
      <point x="393" y="-44" type="curve" smooth="yes"/>
      <point x="619" y="-212"/>
      <point x="766" y="-337"/>
      <point x="880" y="-337" type="curve" smooth="yes"/>
      <point x="911" y="-337"/>
      <point x="939" y="-328"/>
      <point x="966" y="-308" type="curve" smooth="yes"/>
      <point x="1025" y="-263"/>
      <point x="1031" y="-230"/>
      <point x="1041" y="-214" type="curve" smooth="yes"/>
      <point x="1042" y="-212"/>
      <point x="1042" y="-210"/>
    </contour>
  </outline>
</glyph>
<glyph name="V" format="1">
  <advance width="569"/>
  <unicode hex="0056"/>
  <outline>
    <contour>
      <point x="550" y="462" type="curve"/>
      <point x="500" y="477"/>
      <point x="475" y="523"/>
      <point x="475" y="562" type="curve" smooth="yes"/>
      <point x="475" y="595"/>
      <point x="493" y="624"/>
      <point x="528" y="624" type="curve" smooth="yes"/>
      <point x="542" y="624"/>
      <point x="561" y="601"/>
      <point x="561" y="546" type="curve" smooth="yes"/>
      <point x="561" y="524"/>
      <point x="558" y="495"/>
    </contour>
    <contour>
      <point x="637" y="554" type="curve" smooth="yes"/>
      <point x="637" y="641"/>
      <point x="599" y="692"/>
      <point x="543" y="692" type="curve" smooth="yes"/>
      <point x="452" y="692"/>
      <point x="411" y="630"/>
      <point x="411" y="563" type="curve" smooth="yes"/>
      <point x="411" y="495"/>
      <point x="453" y="421"/>
      <point x="531" y="401" type="curve"/>
      <point x="519" y="368"/>
      <point x="504" y="331"/>
      <point x="483" y="289" type="curve" smooth="yes"/>
      <point x="433" y="192"/>
      <point x="335" y="42"/>
      <point x="260" y="30" type="curve" smooth="yes"/>
      <point x="257" y="29"/>
      <point x="254" y="29"/>
      <point x="251" y="29" type="curve" smooth="yes"/>
      <point x="219" y="29"/>
      <point x="196" y="64"/>
      <point x="196" y="151" type="curve" smooth="yes"/>
      <point x="196" y="347"/>
      <point x="298" y="512"/>
      <point x="307" y="522" type="curve" smooth="yes"/>
      <point x="308" y="523"/>
      <point x="308" y="525"/>
      <point x="308" y="527" type="curve" smooth="yes"/>
      <point x="308" y="538"/>
      <point x="293" y="555"/>
      <point x="273" y="555" type="curve" smooth="yes"/>
      <point x="264" y="555"/>
      <point x="254" y="551"/>
      <point x="244" y="543" type="curve" smooth="yes"/>
      <point x="243" y="543"/>
      <point x="243" y="542"/>
      <point x="242" y="542" type="curve" smooth="yes"/>
      <point x="15" y="404" type="line" smooth="yes"/>
      <point x="4" y="397"/>
      <point x="-1" y="386"/>
      <point x="-1" y="375" type="curve" smooth="yes"/>
      <point x="-1" y="361"/>
      <point x="7" y="349"/>
      <point x="21" y="349" type="curve" smooth="yes"/>
      <point x="26" y="349"/>
      <point x="31" y="350"/>
      <point x="37" y="354" type="curve" smooth="yes"/>
      <point x="184" y="446" type="line"/>
      <point x="153" y="378"/>
      <point x="118" y="274"/>
      <point x="118" y="159" type="curve" smooth="yes"/>
      <point x="118" y="31"/>
      <point x="158" y="-37"/>
      <point x="246" y="-37" type="curve" smooth="yes"/>
      <point x="248" y="-37" type="line" smooth="yes"/>
      <point x="365" y="-31"/>
      <point x="460" y="108"/>
      <point x="545" y="259" type="curve" smooth="yes"/>
      <point x="572" y="309"/>
      <point x="592" y="356"/>
      <point x="607" y="398" type="curve"/>
      <point x="657" y="405"/>
      <point x="715" y="431"/>
      <point x="781" y="482" type="curve" smooth="yes"/>
      <point x="789" y="489"/>
      <point x="793" y="497"/>
      <point x="793" y="505" type="curve" smooth="yes"/>
      <point x="793" y="518"/>
      <point x="784" y="530"/>
      <point x="771" y="530" type="curve" smooth="yes"/>
      <point x="766" y="530"/>
      <point x="760" y="528"/>
      <point x="754" y="524" type="curve" smooth="yes"/>
      <point x="704" y="488"/>
      <point x="661" y="469"/>
      <point x="625" y="461" type="curve"/>
      <point x="633" y="495"/>
      <point x="637" y="527"/>
    </contour>
  </outline>
</glyph>
<glyph name="grave" format="1">
  <advance width="208"/>
  <unicode hex="0060"/>
  <outline>
    <contour>
      <point x="156" y="339" type="move" name="_top"/>
    </contour>
    <contour>
      <point x="124" y="407" type="curve" smooth="yes"/>
      <point x="133" y="407"/>
      <point x="140" y="413"/>
      <point x="140" y="422" type="curve" smooth="yes"/>
      <point x="140" y="427"/>
      <point x="138" y="433"/>
      <point x="133" y="440" type="curve" smooth="yes"/>
      <point x="47" y="581" type="line" smooth="yes"/>
      <point x="39" y="594"/>
      <point x="28" y="600"/>
      <point x="16" y="600" type="curve" smooth="yes"/>
      <point x="-6" y="600"/>
      <point x="-29" y="580"/>
      <point x="-29" y="558" type="curve" smooth="yes"/>
      <point x="-29" y="549"/>
      <point x="-25" y="538"/>
      <point x="-15" y="529" type="curve" smooth="yes"/>
      <point x="104" y="416" type="line" smooth="yes"/>
      <point x="111" y="409"/>
      <point x="118" y="407"/>
    </contour>
  </outline>
</glyph>
<glyph name="braceright" format="1">
  <advance width="426"/>
  <unicode hex="007D"/>
  <outline>
    <contour>
      <point x="162" y="574" type="curve" smooth="yes"/>
      <point x="170" y="574"/>
      <point x="179" y="575"/>
      <point x="186" y="575" type="curve" smooth="yes"/>
      <point x="252" y="575"/>
      <point x="261" y="552"/>
      <point x="261" y="497" type="curve" smooth="yes"/>
      <point x="261" y="447"/>
      <point x="246" y="392"/>
      <point x="246" y="338" type="curve" smooth="yes"/>
      <point x="246" y="298"/>
      <point x="271" y="272"/>
      <point x="305" y="257" type="curve"/>
      <point x="263" y="246"/>
      <point x="230" y="218"/>
      <point x="227" y="167" type="curve" smooth="yes"/>
      <point x="218" y="-2"/>
      <point x="209" y="-46"/>
      <point x="165" y="-53" type="curve" smooth="yes"/>
      <point x="154" y="-53" type="line" smooth="yes"/>
      <point x="125" y="-53"/>
      <point x="98" y="-43"/>
      <point x="80" y="-38" type="curve" smooth="yes"/>
      <point x="77" y="-37"/>
      <point x="74" y="-36"/>
      <point x="71" y="-36" type="curve" smooth="yes"/>
      <point x="56" y="-36"/>
      <point x="48" y="-51"/>
      <point x="48" y="-64" type="curve" smooth="yes"/>
      <point x="48" y="-72"/>
      <point x="51" y="-80"/>
      <point x="58" y="-84" type="curve" smooth="yes"/>
      <point x="81" y="-98"/>
      <point x="120" y="-111"/>
      <point x="160" y="-111" type="curve" smooth="yes"/>
      <point x="271" y="-111"/>
      <point x="293" y="-34"/>
      <point x="303" y="146" type="curve" smooth="yes"/>
      <point x="306" y="193"/>
      <point x="320" y="217"/>
      <point x="373" y="217" type="curve" smooth="yes"/>
      <point x="380" y="217"/>
      <point x="388" y="216"/>
      <point x="395" y="216" type="curve" smooth="yes"/>
      <point x="416" y="216"/>
      <point x="427" y="227"/>
      <point x="427" y="253" type="curve" smooth="yes"/>
      <point x="427" y="271"/>
      <point x="418" y="286"/>
      <point x="403" y="288" type="curve" smooth="yes"/>
      <point x="333" y="294"/>
      <point x="324" y="310"/>
      <point x="324" y="347" type="curve" smooth="yes"/>
      <point x="324" y="404"/>
      <point x="338" y="455"/>
      <point x="338" y="504" type="curve" smooth="yes"/>
      <point x="338" y="586"/>
      <point x="304" y="631"/>
      <point x="206" y="631" type="curve" smooth="yes"/>
      <point x="191" y="631"/>
      <point x="174" y="630"/>
      <point x="156" y="628" type="curve" smooth="yes"/>
      <point x="144" y="627"/>
      <point x="138" y="615"/>
      <point x="138" y="603" type="curve" smooth="yes"/>
      <point x="138" y="589"/>
      <point x="146" y="574"/>
    </contour>
  </outline>
</glyph>
<glyph name="yen" format="1">
  <advance width="528"/>
  <unicode hex="00A5"/>
  <outline>
    <contour>
      <point x="286" y="17" type="curve" smooth="yes"/>
      <point x="323" y="132" type="line"/>
      <point x="407" y="132" type="line" smooth="yes"/>
      <point x="438" y="132"/>
      <point x="470" y="136"/>
      <point x="470" y="165" type="curve" smooth="yes"/>
      <point x="470" y="183"/>
      <point x="442" y="187"/>
      <point x="423" y="187" type="curve" smooth="yes"/>
      <point x="344" y="187" type="line"/>
      <point x="356" y="219" type="line"/>
      <point x="416" y="219" type="line" smooth="yes"/>
      <point x="447" y="219"/>
      <point x="481" y="223"/>
      <point x="481" y="252" type="curve" smooth="yes"/>
      <point x="481" y="271"/>
      <point x="452" y="274"/>
      <point x="433" y="274" type="curve" smooth="yes"/>
      <point x="393" y="274" type="line"/>
      <point x="437" y="335"/>
      <point x="514" y="449"/>
      <point x="558" y="506" type="curve" smooth="yes"/>
      <point x="566" y="516"/>
      <point x="569" y="526"/>
      <point x="569" y="535" type="curve" smooth="yes"/>
      <point x="569" y="556"/>
      <point x="550" y="571"/>
      <point x="529" y="571" type="curve" smooth="yes"/>
      <point x="515" y="571"/>
      <point x="501" y="564"/>
      <point x="490" y="548" type="curve" smooth="yes"/>
      <point x="436" y="466"/>
      <point x="381" y="366"/>
      <point x="324" y="283" type="curve"/>
      <point x="317" y="321"/>
      <point x="267" y="517"/>
      <point x="257" y="551" type="curve" smooth="yes"/>
      <point x="250" y="575"/>
      <point x="233" y="585"/>
      <point x="217" y="585" type="curve" smooth="yes"/>
      <point x="196" y="585"/>
      <point x="175" y="568"/>
      <point x="175" y="542" type="curve" smooth="yes"/>
      <point x="175" y="537"/>
      <point x="175" y="531"/>
      <point x="177" y="526" type="curve" smooth="yes"/>
      <point x="254" y="274" type="line"/>
      <point x="203" y="274" type="line" smooth="yes"/>
      <point x="180" y="274"/>
      <point x="153" y="271"/>
      <point x="153" y="250" type="curve" smooth="yes"/>
      <point x="153" y="226"/>
      <point x="177" y="219"/>
      <point x="203" y="219" type="curve" smooth="yes"/>
      <point x="256" y="219" type="line"/>
      <point x="248" y="187" type="line"/>
      <point x="188" y="187" type="line" smooth="yes"/>
      <point x="164" y="187"/>
      <point x="140" y="183"/>
      <point x="140" y="162" type="curve" smooth="yes"/>
      <point x="140" y="138"/>
      <point x="162" y="132"/>
      <point x="188" y="132" type="curve" smooth="yes"/>
      <point x="233" y="132" type="line"/>
      <point x="229" y="114"/>
      <point x="209" y="50"/>
      <point x="205" y="40" type="curve" smooth="yes"/>
      <point x="201" y="30"/>
      <point x="199" y="22"/>
      <point x="199" y="15" type="curve" smooth="yes"/>
      <point x="199" y="-6"/>
      <point x="216" y="-16"/>
      <point x="234" y="-16" type="curve" smooth="yes"/>
      <point x="255" y="-16"/>
      <point x="279" y="-4"/>
    </contour>
  </outline>
</glyph>
<glyph name="plusminus" format="1">
  <advance width="514"/>
  <unicode hex="00B1"/>
  <outline>
    <contour>
      <point x="263" y="87" type="curve" smooth="yes"/>
      <point x="285" y="87"/>
      <point x="296" y="109"/>
      <point x="296" y="133" type="curve" smooth="yes"/>
      <point x="296" y="209" type="line"/>
      <point x="375" y="209" type="line" smooth="yes"/>
      <point x="397" y="209"/>
      <point x="415" y="224"/>
      <point x="415" y="247" type="curve" smooth="yes"/>
      <point x="415" y="264"/>
      <point x="401" y="275"/>
      <point x="381" y="275" type="curve" smooth="yes"/>
      <point x="296" y="275" type="line"/>
      <point x="296" y="359" type="line" smooth="yes"/>
      <point x="296" y="379"/>
      <point x="285" y="394"/>
      <point x="267" y="394" type="curve" smooth="yes"/>
      <point x="245" y="394"/>
      <point x="230" y="375"/>
      <point x="230" y="353" type="curve" smooth="yes"/>
      <point x="230" y="275" type="line"/>
      <point x="155" y="275" type="line" smooth="yes"/>
      <point x="131" y="275"/>
      <point x="109" y="264"/>
      <point x="109" y="242" type="curve" smooth="yes"/>
      <point x="109" y="219"/>
      <point x="130" y="209"/>
      <point x="153" y="209" type="curve" smooth="yes"/>
      <point x="230" y="209" type="line"/>
      <point x="230" y="132" type="line" smooth="yes"/>
      <point x="230" y="108"/>
      <point x="240" y="87"/>
    </contour>
    <contour>
      <point x="168" y="-38" type="curve" smooth="yes"/>
      <point x="169" y="-38"/>
      <point x="170" y="-38"/>
      <point x="344" y="-34" type="curve" smooth="yes"/>
      <point x="367" y="-33"/>
      <point x="380" y="-16"/>
      <point x="380" y="2" type="curve" smooth="yes"/>
      <point x="380" y="16"/>
      <point x="369" y="28"/>
      <point x="345" y="28" type="curve" smooth="yes"/>
      <point x="171" y="28" type="line" smooth="yes"/>
      <point x="148" y="28"/>
      <point x="139" y="11"/>
      <point x="139" y="-5" type="curve" smooth="yes"/>
      <point x="139" y="-22"/>
      <point x="149" y="-38"/>
    </contour>
  </outline>
</glyph>
<glyph name="acute" format="1">
  <advance width="208"/>
  <unicode hex="00B4"/>
  <outline>
    <contour>
      <point x="89" y="339" type="move" name="_top"/>
    </contour>
    <contour>
      <point x="126" y="426" type="curve" smooth="yes"/>
      <point x="246" y="540" type="line" smooth="yes"/>
      <point x="256" y="549"/>
      <point x="260" y="560"/>
      <point x="260" y="569" type="curve" smooth="yes"/>
      <point x="260" y="591"/>
      <point x="237" y="610"/>
      <point x="215" y="610" type="curve" smooth="yes"/>
      <point x="203" y="610"/>
      <point x="192" y="605"/>
      <point x="184" y="591" type="curve" smooth="yes"/>
      <point x="97" y="451" type="line" smooth="yes"/>
      <point x="93" y="444"/>
      <point x="91" y="438"/>
      <point x="91" y="433" type="curve" smooth="yes"/>
      <point x="91" y="423"/>
      <point x="97" y="417"/>
      <point x="106" y="417" type="curve" smooth="yes"/>
      <point x="112" y="417"/>
      <point x="119" y="420"/>
    </contour>
  </outline>
</glyph>
<glyph name="multiply" format="1">
  <advance width="438"/>
  <unicode hex="00D7"/>
  <outline>
    <contour>
      <point x="321" y="58" type="curve" smooth="yes"/>
      <point x="338" y="58"/>
      <point x="350" y="69"/>
      <point x="350" y="86" type="curve" smooth="yes"/>
      <point x="350" y="101"/>
      <point x="342" y="112"/>
      <point x="333" y="121" type="curve" smooth="yes"/>
      <point x="283" y="175" type="line"/>
      <point x="335" y="230" type="line" smooth="yes"/>
      <point x="342" y="238"/>
      <point x="348" y="247"/>
      <point x="348" y="260" type="curve" smooth="yes"/>
      <point x="348" y="278"/>
      <point x="336" y="294"/>
      <point x="318" y="294" type="curve" smooth="yes"/>
      <point x="308" y="294"/>
      <point x="300" y="288"/>
      <point x="293" y="282" type="curve" smooth="yes"/>
      <point x="236" y="218" type="line"/>
      <point x="177" y="281" type="line" smooth="yes"/>
      <point x="169" y="290"/>
      <point x="161" y="293"/>
      <point x="152" y="293" type="curve" smooth="yes"/>
      <point x="134" y="293"/>
      <point x="123" y="277"/>
      <point x="123" y="259" type="curve" smooth="yes"/>
      <point x="123" y="246"/>
      <point x="128" y="237"/>
      <point x="135" y="230" type="curve" smooth="yes"/>
      <point x="190" y="175" type="line"/>
      <point x="137" y="122" type="line" smooth="yes"/>
      <point x="128" y="113"/>
      <point x="120" y="102"/>
      <point x="120" y="87" type="curve" smooth="yes"/>
      <point x="120" y="70"/>
      <point x="132" y="58"/>
      <point x="149" y="58" type="curve" smooth="yes"/>
      <point x="164" y="58"/>
      <point x="174" y="66"/>
      <point x="183" y="75" type="curve" smooth="yes"/>
      <point x="236" y="132" type="line"/>
      <point x="288" y="74" type="line" smooth="yes"/>
      <point x="296" y="64"/>
      <point x="307" y="58"/>
    </contour>
  </outline>
</glyph>
<glyph name="germandbls" format="1">
  <advance width="438"/>
  <unicode hex="00DF"/>
  <outline>
    <contour>
      <point x="241" y="68" type="curve" smooth="yes"/>
      <point x="222" y="68"/>
      <point x="191" y="75"/>
      <point x="178" y="75" type="curve" smooth="yes"/>
      <point x="163" y="75"/>
      <point x="158" y="70"/>
      <point x="157" y="60" type="curve" smooth="yes"/>
      <point x="156" y="53"/>
      <point x="154" y="46"/>
      <point x="154" y="39" type="curve" smooth="yes"/>
      <point x="154" y="21"/>
      <point x="166" y="6"/>
      <point x="234" y="1" type="curve" smooth="yes"/>
      <point x="240" y="1"/>
      <point x="246" y="0"/>
      <point x="252" y="0" type="curve" smooth="yes"/>
      <point x="348" y="0"/>
      <point x="431" y="61"/>
      <point x="431" y="155" type="curve" smooth="yes"/>
      <point x="431" y="240"/>
      <point x="369" y="289"/>
      <point x="282" y="289" type="curve"/>
      <point x="371" y="291"/>
      <point x="442" y="335"/>
      <point x="442" y="424" type="curve" smooth="yes"/>
      <point x="442" y="503"/>
      <point x="368" y="546"/>
      <point x="285" y="546" type="curve" smooth="yes"/>
      <point x="257" y="546"/>
      <point x="231" y="542"/>
      <point x="209" y="533" type="curve" smooth="yes"/>
      <point x="42" y="465"/>
      <point x="22" y="208"/>
      <point x="22" y="-23" type="curve" smooth="yes"/>
      <point x="22" y="-44"/>
      <point x="43" y="-54"/>
      <point x="65" y="-54" type="curve" smooth="yes"/>
      <point x="92" y="-54"/>
      <point x="113" y="-40"/>
      <point x="113" y="-13" type="curve" smooth="yes"/>
      <point x="113" y="54" type="line" smooth="yes"/>
      <point x="113" y="222"/>
      <point x="115" y="480"/>
      <point x="286" y="480" type="curve" smooth="yes"/>
      <point x="328" y="480"/>
      <point x="365" y="463"/>
      <point x="365" y="421" type="curve" smooth="yes"/>
      <point x="365" y="356"/>
      <point x="306" y="329"/>
      <point x="240" y="329" type="curve" smooth="yes"/>
      <point x="210" y="329"/>
      <point x="205" y="318"/>
      <point x="205" y="289" type="curve" smooth="yes"/>
      <point x="205" y="270"/>
      <point x="215" y="261"/>
      <point x="229" y="255" type="curve" smooth="yes"/>
      <point x="284" y="230"/>
      <point x="354" y="247"/>
      <point x="354" y="167" type="curve" smooth="yes"/>
      <point x="354" y="104"/>
      <point x="302" y="68"/>
    </contour>
  </outline>
</glyph>
<glyph name="ae" format="1">
  <advance width="487"/>
  <unicode hex="00E6"/>
  <outline>
    <contour>
      <point x="355" y="339" type="move" name="top"/>
    </contour>
    <contour>
      <point x="383" y="0" type="move" name="ogonek"/>
    </contour>
    <contour>
      <point x="236" y="63" type="curve"/>
      <point x="259" y="16"/>
      <point x="310" y="-6"/>
      <point x="362" y="-6" type="curve" smooth="yes"/>
      <point x="445" y="-6"/>
      <point x="523" y="46"/>
      <point x="554" y="88" type="curve" smooth="yes"/>
      <point x="559" y="95"/>
      <point x="561" y="101"/>
      <point x="561" y="107" type="curve" smooth="yes"/>
      <point x="561" y="122"/>
      <point x="548" y="132"/>
      <point x="536" y="132" type="curve" smooth="yes"/>
      <point x="532" y="132"/>
      <point x="527" y="131"/>
      <point x="524" y="128" type="curve" smooth="yes"/>
      <point x="479" y="84"/>
      <point x="420" y="60"/>
      <point x="374" y="60" type="curve" smooth="yes"/>
      <point x="371" y="60" type="line" smooth="yes"/>
      <point x="337" y="60"/>
      <point x="311" y="74"/>
      <point x="301" y="103" type="curve"/>
      <point x="419" y="128"/>
      <point x="482" y="169"/>
      <point x="482" y="245" type="curve" smooth="yes"/>
      <point x="482" y="298"/>
      <point x="440" y="330"/>
      <point x="388" y="330" type="curve" smooth="yes"/>
      <point x="360" y="330"/>
      <point x="335" y="321"/>
      <point x="313" y="307" type="curve"/>
      <point x="313" y="308"/>
      <point x="313" y="335"/>
      <point x="271" y="335" type="curve" smooth="yes"/>
      <point x="111" y="335"/>
      <point x="23" y="242"/>
      <point x="17" y="106" type="curve" smooth="yes"/>
      <point x="17" y="99" type="line" smooth="yes"/>
      <point x="17" y="40"/>
      <point x="54" y="-6"/>
      <point x="120" y="-6" type="curve" smooth="yes"/>
      <point x="167" y="-6"/>
      <point x="212" y="18"/>
    </contour>
    <contour>
      <point x="140" y="65" type="curve" smooth="yes"/>
      <point x="108" y="65"/>
      <point x="100" y="87"/>
      <point x="100" y="111" type="curve" smooth="yes"/>
      <point x="100" y="173"/>
      <point x="171" y="266"/>
      <point x="271" y="266" type="curve"/>
      <point x="244" y="242"/>
      <point x="220" y="180"/>
      <point x="220" y="118" type="curve"/>
      <point x="207" y="100"/>
      <point x="177" y="65"/>
    </contour>
    <contour>
      <point x="296" y="147" type="curve"/>
      <point x="296" y="206"/>
      <point x="345" y="265"/>
      <point x="392" y="265" type="curve" smooth="yes"/>
      <point x="408" y="265"/>
      <point x="421" y="258"/>
      <point x="421" y="237" type="curve" smooth="yes"/>
      <point x="421" y="195"/>
      <point x="338" y="161"/>
    </contour>
  </outline>
</glyph>
<glyph name="uni0259" format="1">
  <advance width="356"/>
  <unicode hex="0259"/>
  <outline>
    <contour>
      <point x="354" y="195" type="curve" smooth="yes"/>
      <point x="354" y="289"/>
      <point x="286" y="330"/>
      <point x="215" y="330" type="curve" smooth="yes"/>
      <point x="132" y="330"/>
      <point x="75" y="256"/>
      <point x="43" y="214" type="curve" smooth="yes"/>
      <point x="38" y="208"/>
      <point x="36" y="202"/>
      <point x="36" y="196" type="curve" smooth="yes"/>
      <point x="36" y="181"/>
      <point x="51" y="169"/>
      <point x="63" y="169" type="curve" smooth="yes"/>
      <point x="67" y="169"/>
      <point x="71" y="171"/>
      <point x="74" y="174" type="curve" smooth="yes"/>
      <point x="129" y="235"/>
      <point x="179" y="266"/>
      <point x="216" y="266" type="curve" smooth="yes"/>
      <point x="245" y="266"/>
      <point x="266" y="247"/>
      <point x="274" y="208" type="curve"/>
      <point x="168" y="203"/>
      <point x="93" y="155"/>
      <point x="93" y="79" type="curve" smooth="yes"/>
      <point x="93" y="26"/>
      <point x="135" y="-6"/>
      <point x="188" y="-6" type="curve" smooth="yes"/>
      <point x="284" y="-6"/>
      <point x="354" y="102"/>
    </contour>
    <contour>
      <point x="279" y="164" type="curve"/>
      <point x="279" y="107"/>
      <point x="232" y="59"/>
      <point x="183" y="59" type="curve" smooth="yes"/>
      <point x="168" y="59"/>
      <point x="154" y="66"/>
      <point x="154" y="87" type="curve" smooth="yes"/>
      <point x="154" y="129"/>
      <point x="202" y="158"/>
    </contour>
  </outline>
</glyph>
<glyph name="caron" format="1">
  <advance width="295"/>
  <unicode hex="02C7"/>
  <outline>
    <contour>
      <point x="127" y="339" type="move" name="_top"/>
    </contour>
    <contour>
      <point x="66" y="637" type="curve" smooth="yes"/>
      <point x="42" y="637"/>
      <point x="27" y="627"/>
      <point x="27" y="609" type="curve" smooth="yes"/>
      <point x="27" y="604"/>
      <point x="28" y="598"/>
      <point x="30" y="592" type="curve" smooth="yes"/>
      <point x="70" y="474" type="line" smooth="yes"/>
      <point x="88" y="421"/>
      <point x="96" y="410"/>
      <point x="135" y="410" type="curve" smooth="yes"/>
      <point x="167" y="410"/>
      <point x="173" y="430"/>
      <point x="202" y="484" type="curve" smooth="yes"/>
      <point x="259" y="590" type="line" smooth="yes"/>
      <point x="263" y="597"/>
      <point x="265" y="604"/>
      <point x="265" y="610" type="curve" smooth="yes"/>
      <point x="265" y="623"/>
      <point x="249" y="636"/>
      <point x="227" y="636" type="curve" smooth="yes"/>
      <point x="203" y="636"/>
      <point x="198" y="614"/>
      <point x="188" y="590" type="curve" smooth="yes"/>
      <point x="132" y="467" type="line"/>
      <point x="95" y="606" type="line" smooth="yes"/>
      <point x="89" y="627"/>
      <point x="81" y="637"/>
    </contour>
  </outline>
</glyph>
<glyph name="uni02C9" format="1">
  <advance width="205"/>
  <unicode hex="02C9"/>
  <outline>
    <contour>
      <point x="86" y="339" type="move" name="_top"/>
    </contour>
    <contour>
      <point x="209" y="486" type="curve" smooth="yes"/>
      <point x="230" y="486"/>
      <point x="239" y="494"/>
      <point x="239" y="512" type="curve" smooth="yes"/>
      <point x="239" y="528"/>
      <point x="226" y="534"/>
      <point x="212" y="538" type="curve" smooth="yes"/>
      <point x="151" y="547"/>
      <point x="104" y="550"/>
      <point x="69" y="550" type="curve" smooth="yes"/>
      <point x="39" y="550"/>
      <point x="18" y="548"/>
      <point x="3" y="543" type="curve" smooth="yes"/>
      <point x="-29" y="534"/>
      <point x="-35" y="518"/>
      <point x="-35" y="504" type="curve" smooth="yes"/>
      <point x="-35" y="487"/>
      <point x="-27" y="473"/>
      <point x="-10" y="473" type="curve" smooth="yes"/>
      <point x="-8" y="473"/>
      <point x="-6" y="473"/>
      <point x="-3" y="474" type="curve" smooth="yes"/>
      <point x="30" y="481"/>
      <point x="56" y="489"/>
      <point x="120" y="489" type="curve" smooth="yes"/>
      <point x="143" y="489"/>
      <point x="174" y="486"/>
    </contour>
  </outline>
</glyph>
<glyph name="breve" format="1">
  <advance width="205"/>
  <unicode hex="02D8"/>
  <outline>
    <contour>
      <point x="87" y="339" type="move" name="_top"/>
    </contour>
    <contour>
      <point x="18" y="530" type="curve" smooth="yes"/>
      <point x="18" y="481"/>
      <point x="50" y="444"/>
      <point x="119" y="444" type="curve" smooth="yes"/>
      <point x="172" y="444"/>
      <point x="222" y="478"/>
      <point x="222" y="541" type="curve" smooth="yes"/>
      <point x="222" y="550"/>
      <point x="211" y="554"/>
      <point x="200" y="554" type="curve" smooth="yes"/>
      <point x="188" y="554"/>
      <point x="176" y="549"/>
      <point x="175" y="542" type="curve" smooth="yes"/>
      <point x="173" y="507"/>
      <point x="145" y="490"/>
      <point x="117" y="490" type="curve" smooth="yes"/>
      <point x="92" y="490"/>
      <point x="68" y="505"/>
      <point x="68" y="533" type="curve" smooth="yes"/>
      <point x="68" y="549"/>
      <point x="58" y="556"/>
      <point x="44" y="556" type="curve" smooth="yes"/>
      <point x="29" y="556"/>
      <point x="18" y="547"/>
    </contour>
  </outline>
</glyph>
<glyph name="ogonek" format="1">
  <advance width="183"/>
  <unicode hex="02DB"/>
  <outline>
    <contour>
      <point x="123" y="0" type="move" name="_ogonek"/>
    </contour>
    <contour>
      <point x="44" y="-95" type="curve" smooth="yes"/>
      <point x="44" y="-134"/>
      <point x="64" y="-153"/>
      <point x="104" y="-153" type="curve" smooth="yes"/>
      <point x="128" y="-153"/>
      <point x="164" y="-146"/>
      <point x="189" y="-124" type="curve" smooth="yes"/>
      <point x="195" y="-119"/>
      <point x="196" y="-107"/>
      <point x="196" y="-98" type="curve" smooth="yes"/>
      <point x="196" y="-89"/>
      <point x="191" y="-73"/>
      <point x="185" y="-73" type="curve" smooth="yes"/>
      <point x="184" y="-73"/>
      <point x="183" y="-74"/>
      <point x="182" y="-75" type="curve" smooth="yes"/>
      <point x="158" y="-92"/>
      <point x="139" y="-98"/>
      <point x="126" y="-98" type="curve" smooth="yes"/>
      <point x="110" y="-97"/>
      <point x="104" y="-88"/>
      <point x="104" y="-75" type="curve" smooth="yes"/>
      <point x="104" y="-41"/>
      <point x="136" y="-5"/>
      <point x="148" y="8" type="curve"/>
      <point x="121" y="8" type="line"/>
      <point x="79" y="-16"/>
      <point x="44" y="-52"/>
    </contour>
  </outline>
</glyph>
<glyph name="pi" format="1">
  <advance width="594"/>
  <unicode hex="03C0"/>
  <outline>
    <contour>
      <point x="308" y="399" type="curve" smooth="yes"/>
      <point x="198" y="399"/>
      <point x="119" y="364"/>
      <point x="119" y="248" type="curve" smooth="yes"/>
      <point x="119" y="230"/>
      <point x="137" y="219"/>
      <point x="152" y="219" type="curve" smooth="yes"/>
      <point x="163" y="219"/>
      <point x="172" y="225"/>
      <point x="175" y="236" type="curve" smooth="yes"/>
      <point x="196" y="314"/>
      <point x="209" y="328"/>
      <point x="271" y="331" type="curve"/>
      <point x="215" y="187"/>
      <point x="172" y="64"/>
      <point x="172" y="28" type="curve" smooth="yes"/>
      <point x="172" y="6"/>
      <point x="181" y="-14"/>
      <point x="208" y="-14" type="curve" smooth="yes"/>
      <point x="229" y="-14"/>
      <point x="257" y="29"/>
      <point x="257" y="36" type="curve" smooth="yes"/>
      <point x="257" y="37"/>
      <point x="257" y="37"/>
      <point x="256" y="37" type="curve" smooth="yes"/>
      <point x="255" y="37"/>
      <point x="253" y="36"/>
      <point x="250" y="33" type="curve"/>
      <point x="266" y="116"/>
      <point x="304" y="211"/>
      <point x="333" y="330" type="curve"/>
      <point x="369" y="328"/>
      <point x="391" y="323"/>
      <point x="435" y="319" type="curve"/>
      <point x="412" y="196"/>
      <point x="402" y="116"/>
      <point x="402" y="65" type="curve" smooth="yes"/>
      <point x="402" y="-2"/>
      <point x="418" y="-19"/>
      <point x="441" y="-19" type="curve" smooth="yes"/>
      <point x="450" y="-19"/>
      <point x="461" y="-16"/>
      <point x="471" y="-13" type="curve" smooth="yes"/>
      <point x="488" y="-8"/>
      <point x="493" y="-1"/>
      <point x="493" y="14" type="curve" smooth="yes"/>
      <point x="493" y="35"/>
      <point x="484" y="72"/>
      <point x="484" y="143" type="curve" smooth="yes"/>
      <point x="484" y="186"/>
      <point x="487" y="242"/>
      <point x="499" y="315" type="curve"/>
      <point x="516" y="314"/>
      <point x="533" y="314"/>
      <point x="551" y="314" type="curve" smooth="yes"/>
      <point x="615" y="314"/>
      <point x="629" y="351"/>
      <point x="632" y="351" type="curve" smooth="yes"/>
      <point x="633" y="351"/>
      <point x="633" y="349"/>
      <point x="633" y="346" type="curve"/>
      <point x="634" y="366"/>
      <point x="620" y="383"/>
      <point x="602" y="383" type="curve" smooth="yes"/>
      <point x="599" y="383" type="line" smooth="yes"/>
      <point x="463" y="383"/>
      <point x="414" y="399"/>
    </contour>
  </outline>
</glyph>
<glyph name="quoteright" format="1">
  <advance width="219"/>
  <unicode hex="2019"/>
  <outline>
    <contour>
      <point x="92" y="405" type="curve" smooth="yes"/>
      <point x="106" y="405"/>
      <point x="116" y="417"/>
      <point x="120" y="431" type="curve" smooth="yes"/>
      <point x="170" y="587" type="line" smooth="yes"/>
      <point x="172" y="591"/>
      <point x="172" y="596"/>
      <point x="172" y="600" type="curve" smooth="yes"/>
      <point x="172" y="622"/>
      <point x="151" y="634"/>
      <point x="133" y="634" type="curve" smooth="yes"/>
      <point x="110" y="634"/>
      <point x="88" y="619"/>
      <point x="86" y="591" type="curve" smooth="yes"/>
      <point x="75" y="438" type="line" smooth="yes"/>
      <point x="75" y="417"/>
      <point x="83" y="405"/>
    </contour>
  </outline>
</glyph>
<glyph name="ellipsis" format="1">
  <advance width="535"/>
  <unicode hex="2026"/>
  <outline>
    <contour>
      <point x="166" y="0" type="curve" smooth="yes"/>
      <point x="206" y="0"/>
      <point x="229" y="26"/>
      <point x="229" y="65" type="curve" smooth="yes"/>
      <point x="229" y="102"/>
      <point x="209" y="121"/>
      <point x="172" y="121" type="curve" smooth="yes"/>
      <point x="132" y="121"/>
      <point x="109" y="94"/>
      <point x="109" y="55" type="curve" smooth="yes"/>
      <point x="109" y="19"/>
      <point x="129" y="0"/>
    </contour>
    <contour>
      <point x="308" y="0" type="curve" smooth="yes"/>
      <point x="348" y="0"/>
      <point x="372" y="26"/>
      <point x="372" y="65" type="curve" smooth="yes"/>
      <point x="372" y="102"/>
      <point x="351" y="121"/>
      <point x="314" y="121" type="curve" smooth="yes"/>
      <point x="274" y="121"/>
      <point x="251" y="94"/>
      <point x="251" y="55" type="curve" smooth="yes"/>
      <point x="251" y="19"/>
      <point x="271" y="0"/>
    </contour>
    <contour>
      <point x="450" y="0" type="curve" smooth="yes"/>
      <point x="490" y="0"/>
      <point x="514" y="26"/>
      <point x="514" y="65" type="curve" smooth="yes"/>
      <point x="514" y="102"/>
      <point x="493" y="121"/>
      <point x="456" y="121" type="curve" smooth="yes"/>
      <point x="416" y="121"/>
      <point x="394" y="94"/>
      <point x="394" y="55" type="curve" smooth="yes"/>
      <point x="394" y="19"/>
      <point x="414" y="0"/>
    </contour>
  </outline>
</glyph>
<glyph name="perthousand" format="1">
  <advance width="1096"/>
  <unicode hex="2030"/>
  <outline>
    <contour>
      <point x="47" y="395" type="curve" smooth="yes"/>
      <point x="47" y="309"/>
      <point x="91" y="246"/>
      <point x="182" y="246" type="curve" smooth="yes"/>
      <point x="274" y="246"/>
      <point x="342" y="315"/>
      <point x="342" y="448" type="curve" smooth="yes"/>
      <point x="342" y="530"/>
      <point x="296" y="603"/>
      <point x="212" y="603" type="curve" smooth="yes"/>
      <point x="106" y="603"/>
      <point x="47" y="504"/>
    </contour>
    <contour>
      <point x="285" y="-4" type="curve" smooth="yes"/>
      <point x="361" y="146"/>
      <point x="512" y="448"/>
      <point x="561" y="549" type="curve" smooth="yes"/>
      <point x="563" y="553"/>
      <point x="563" y="557"/>
      <point x="563" y="561" type="curve" smooth="yes"/>
      <point x="563" y="580"/>
      <point x="547" y="597"/>
      <point x="529" y="597" type="curve" smooth="yes"/>
      <point x="519" y="597"/>
      <point x="509" y="591"/>
      <point x="501" y="576" type="curve" smooth="yes"/>
      <point x="451" y="477"/>
      <point x="300" y="172"/>
      <point x="228" y="31" type="curve" smooth="yes"/>
      <point x="221" y="18"/>
      <point x="219" y="7"/>
      <point x="219" y="-2" type="curve" smooth="yes"/>
      <point x="219" y="-21"/>
      <point x="231" y="-31"/>
      <point x="246" y="-31" type="curve" smooth="yes"/>
      <point x="260" y="-31"/>
      <point x="276" y="-23"/>
    </contour>
    <contour>
      <point x="441" y="139" type="curve" smooth="yes"/>
      <point x="441" y="54"/>
      <point x="491" y="-16"/>
      <point x="580" y="-16" type="curve" smooth="yes"/>
      <point x="667" y="-16"/>
      <point x="733" y="64"/>
      <point x="733" y="186" type="curve" smooth="yes"/>
      <point x="733" y="266"/>
      <point x="688" y="342"/>
      <point x="600" y="342" type="curve" smooth="yes"/>
      <point x="502" y="342"/>
      <point x="441" y="246"/>
    </contour>
    <contour>
      <point x="774" y="136" type="curve" smooth="yes"/>
      <point x="774" y="52"/>
      <point x="823" y="-18"/>
      <point x="908" y="-18" type="curve" smooth="yes"/>
      <point x="999" y="-18"/>
      <point x="1066" y="61"/>
      <point x="1066" y="184" type="curve" smooth="yes"/>
      <point x="1066" y="264"/>
      <point x="1021" y="340"/>
      <point x="935" y="340" type="curve" smooth="yes"/>
      <point x="832" y="340"/>
      <point x="774" y="243"/>
    </contour>
    <contour>
      <point x="181" y="307" type="curve" smooth="yes"/>
      <point x="141" y="307"/>
      <point x="121" y="353"/>
      <point x="121" y="404" type="curve" smooth="yes"/>
      <point x="121" y="467"/>
      <point x="151" y="538"/>
      <point x="211" y="538" type="curve" smooth="yes"/>
      <point x="252" y="538"/>
      <point x="273" y="489"/>
      <point x="273" y="436" type="curve" smooth="yes"/>
      <point x="273" y="374"/>
      <point x="244" y="307"/>
    </contour>
    <contour>
      <point x="578" y="45" type="curve" smooth="yes"/>
      <point x="532" y="45"/>
      <point x="513" y="93"/>
      <point x="513" y="144" type="curve" smooth="yes"/>
      <point x="513" y="208"/>
      <point x="544" y="278"/>
      <point x="602" y="278" type="curve" smooth="yes"/>
      <point x="645" y="278"/>
      <point x="663" y="233"/>
      <point x="663" y="181" type="curve" smooth="yes"/>
      <point x="663" y="117"/>
      <point x="633" y="45"/>
    </contour>
    <contour>
      <point x="910" y="43" type="curve" smooth="yes"/>
      <point x="865" y="43"/>
      <point x="846" y="90"/>
      <point x="846" y="142" type="curve" smooth="yes"/>
      <point x="846" y="206"/>
      <point x="876" y="277"/>
      <point x="935" y="277" type="curve" smooth="yes"/>
      <point x="977" y="277"/>
      <point x="996" y="231"/>
      <point x="996" y="178" type="curve" smooth="yes"/>
      <point x="996" y="114"/>
      <point x="966" y="43"/>
    </contour>
  </outline>
</glyph>
<glyph name="fraction" format="1">
  <advance width="247"/>
  <unicode hex="2044"/>
  <outline>
    <contour>
      <point x="69" y="-16" type="curve" smooth="yes"/>
      <point x="323" y="571" type="line" smooth="yes"/>
      <point x="325" y="576"/>
      <point x="326" y="581"/>
      <point x="326" y="586" type="curve" smooth="yes"/>
      <point x="326" y="605"/>
      <point x="311" y="621"/>
      <point x="293" y="621" type="curve" smooth="yes"/>
      <point x="281" y="621"/>
      <point x="267" y="613"/>
      <point x="258" y="593" type="curve" smooth="yes"/>
      <point x="4" y="20" type="line" smooth="yes"/>
      <point x="1" y="13"/>
      <point x="0" y="7"/>
      <point x="-0" y="1" type="curve" smooth="yes"/>
      <point x="0" y="-22"/>
      <point x="20" y="-36"/>
      <point x="39" y="-36" type="curve" smooth="yes"/>
      <point x="51" y="-36"/>
      <point x="63" y="-30"/>
    </contour>
  </outline>
</glyph>
<glyph name="summation" format="1">
  <advance width="771"/>
  <unicode hex="2211"/>
  <outline>
    <contour>
      <point x="396" y="651" type="curve" smooth="yes"/>
      <point x="305" y="651"/>
      <point x="245" y="642"/>
      <point x="188" y="620" type="curve" smooth="yes"/>
      <point x="172" y="614"/>
      <point x="165" y="600"/>
      <point x="165" y="587" type="curve" smooth="yes"/>
      <point x="165" y="570"/>
      <point x="178" y="553"/>
      <point x="198" y="553" type="curve" smooth="yes"/>
      <point x="203" y="553"/>
      <point x="208" y="554"/>
      <point x="213" y="556" type="curve" smooth="yes"/>
      <point x="232" y="556"/>
      <point x="250" y="568"/>
      <point x="273" y="572" type="curve"/>
      <point x="424" y="316" type="line"/>
      <point x="240" y="153"/>
      <point x="121" y="61"/>
      <point x="121" y="24" type="curve" smooth="yes"/>
      <point x="121" y="6"/>
      <point x="136" y="-5"/>
      <point x="152" y="-5" type="curve" smooth="yes"/>
      <point x="168" y="-5"/>
      <point x="188" y="4"/>
      <point x="207" y="25" type="curve"/>
      <point x="296" y="-4"/>
      <point x="390" y="-38"/>
      <point x="497" y="-38" type="curve" smooth="yes"/>
      <point x="564" y="-38"/>
      <point x="636" y="-25"/>
      <point x="717" y="11" type="curve" smooth="yes"/>
      <point x="728" y="15"/>
      <point x="733" y="25"/>
      <point x="733" y="36" type="curve" smooth="yes"/>
      <point x="733" y="54"/>
      <point x="719" y="75"/>
      <point x="702" y="75" type="curve" smooth="yes"/>
      <point x="699" y="75"/>
      <point x="696" y="74"/>
      <point x="693" y="73" type="curve" smooth="yes"/>
      <point x="633" y="48"/>
      <point x="575" y="30"/>
      <point x="502" y="30" type="curve" smooth="yes"/>
      <point x="436" y="30"/>
      <point x="357" y="45"/>
      <point x="253" y="84" type="curve"/>
      <point x="319" y="149"/>
      <point x="413" y="213"/>
      <point x="513" y="304" type="curve"/>
      <point x="351" y="580" type="line"/>
      <point x="369" y="581"/>
      <point x="389" y="581"/>
      <point x="411" y="581" type="curve" smooth="yes"/>
      <point x="469" y="581"/>
      <point x="562" y="578"/>
      <point x="631" y="578" type="curve" smooth="yes"/>
      <point x="669" y="578" type="line" smooth="yes"/>
      <point x="749" y="580"/>
      <point x="756" y="593"/>
      <point x="756" y="613" type="curve" smooth="yes"/>
      <point x="756" y="638"/>
      <point x="740" y="652"/>
      <point x="721" y="652" type="curve" smooth="yes"/>
      <point x="717" y="652" type="line" smooth="yes"/>
      <point x="671" y="648"/>
      <point x="632" y="647"/>
      <point x="596" y="647" type="curve" smooth="yes"/>
      <point x="531" y="647"/>
      <point x="475" y="651"/>
    </contour>
  </outline>
</glyph>
